<svg id="Capa_1" enable-background="new 0 0 512 512" height="512" viewBox="0 0 512 512" width="512" xmlns="http://www.w3.org/2000/svg"><g><path d="m511.997 256c0 141.381-114.617 255.998-255.998 255.999-141.038 0-256-114.962-256-256 .001-141.381 114.619-255.998 256-255.998h.278c6.478.007 8.536 8.758 2.762 11.697-58.237 29.643-98.136 90.154-98.136 159.991-.001 98.862 80.544 179.407 179.406 179.407 69.836 0 130.348-39.899 159.991-98.136 2.939-5.773 11.69-3.715 11.697 2.762z" fill="#f9ef63"/><path d="m344.604 445.346c37.746 0 73.585-8.169 105.84-22.839-46.945 54.785-116.636 89.491-194.446 89.491-141.041.001-255.998-114.957-255.998-255.998 0-103.625 61.584-192.88 150.148-233.16-38.374 44.771-61.543 102.935-61.543 166.507 0 141.042 114.958 255.999 255.999 255.999z" fill="#f1d333"/><g><g><path d="m501.284 127.29-46.142 10.106c-5.192 1.143-9.251 5.202-10.395 10.405l-10.106 46.142c-1.978 9.045-10.879 12.352-17.925 9.951-4.09-1.391-7.551-4.718-8.695-9.951l-10.106-46.142c-1.143-5.202-5.202-9.261-10.405-10.405l-46.141-10.106c-14.278-3.121-14.278-23.488 0-26.62l46.141-10.106c5.202-1.143 9.261-5.202 10.405-10.394l10.106-46.142c1.607-7.345 7.757-10.91 13.794-10.703 5.707.185 11.301 3.76 12.826 10.703l10.106 46.142c1.144 5.192 5.202 9.251 10.395 10.394l46.142 10.106c14.288 3.132 14.288 23.498 0 26.62z" fill="#f9ef63"/><path d="m419.818 203.894c.484.505.999.752 1.504.752-1.566 0-3.121-.247-4.605-.752-4.09-1.391-7.551-4.718-8.695-9.951l-10.106-46.142c-1.143-5.202-5.202-9.261-10.405-10.405l-46.141-10.106c-14.278-3.121-14.278-23.488 0-26.62l46.142-10.106c5.202-1.143 9.261-5.202 10.405-10.394l10.106-46.142c1.566-7.15 7.428-10.714 13.3-10.714-1.927 0-3.832 3.564-4.348 10.714l-3.307 46.142c-.371 5.192-1.7 9.251-3.41 10.394l-15.092 10.106c-8.753 7.218-13.569 17.504 0 26.62l15.092 10.106c1.71 1.143 3.039 5.202 3.41 10.405l3.307 46.142c.37 5.232 1.503 8.56 2.843 9.951z" fill="#f1d333"/></g></g><g><g><path d="m344.865 197.654-34.8 7.622c-3.916.862-6.977 3.924-7.84 7.847l-7.622 34.8c-1.492 6.822-8.205 9.316-13.519 7.505-3.085-1.049-5.695-3.559-6.557-7.505l-7.622-34.8c-.862-3.924-3.924-6.985-7.847-7.847l-34.8-7.622c-10.769-2.354-10.769-17.715 0-20.077l34.8-7.622c3.924-.862 6.985-3.924 7.847-7.84l7.622-34.8c1.212-5.54 5.85-8.228 10.403-8.073 4.304.14 8.523 2.836 9.673 8.073l7.622 34.8c.863 3.916 3.924 6.977 7.84 7.84l34.8 7.622c10.776 2.363 10.776 17.723 0 20.077z" fill="#f9ef63"/><path d="m283.423 255.429c.365.381.753.567 1.134.567-1.181 0-2.354-.186-3.473-.567-3.085-1.049-5.695-3.559-6.557-7.505l-7.622-34.8c-.862-3.924-3.923-6.985-7.847-7.847l-34.8-7.622c-10.769-2.354-10.769-17.715 0-20.077l34.8-7.622c3.924-.862 6.985-3.924 7.847-7.839l7.622-34.8c1.181-5.392 5.602-8.081 10.031-8.081-1.453 0-2.89 2.688-3.279 8.081l-2.494 34.8c-.28 3.916-1.282 6.977-2.572 7.839l-11.382 7.622c-6.601 5.444-10.234 13.202 0 20.077l11.382 7.622c1.29.862 2.292 3.924 2.572 7.847l2.494 34.8c.279 3.947 1.134 6.456 2.144 7.505z" fill="#f1d333"/></g></g><path d="m434.641 59.782-1.803-1.504c.578.381 1.175.876 1.803 1.504z" fill="#f9ef63"/></g></svg>